<svg width="48" height="28" viewBox="0 0 48 28" fill="none" xmlns="http://www.w3.org/2000/svg">
<path d="M9.21301 27.518C3.26834 27.518 0.296008 25.3597 0.296008 21.043C0.296008 20.377 0.370008 19.6617 0.518008 18.897L0.999008 16.159H7.65901L7.43701 17.38C7.33834 17.9967 7.28901 18.6257 7.28901 19.267C7.28901 19.9083 7.44934 20.4387 7.77001 20.858C8.26334 21.4747 9.07734 21.783 10.212 21.783C11.3467 21.783 12.2593 21.4747 12.95 20.858C13.6653 20.2413 14.171 19.1067 14.467 17.454L17.501 0.322999H24.124L21.016 17.972C20.4487 21.2527 19.2153 23.67 17.316 25.224C15.4167 26.7533 12.7157 27.518 9.21301 27.518ZM33.7749 27.518C30.2476 27.518 27.8056 26.7533 26.4489 25.224C25.5116 24.1387 25.0429 22.6217 25.0429 20.673C25.0429 19.8343 25.1293 18.934 25.3019 17.972L26.8189 9.462C27.9289 3.22133 31.9373 0.100998 38.8439 0.100998C41.7053 0.100998 43.8759 0.717665 45.3559 1.951C46.8359 3.15967 47.5759 4.82467 47.5759 6.946C47.5759 7.93267 47.4279 8.91933 47.1319 9.906C46.8606 10.868 46.5893 11.5833 46.3179 12.052L45.9109 12.792H39.3619C40.1759 11.8547 40.5829 10.5227 40.5829 8.796C40.5829 7.88333 40.3486 7.168 39.8799 6.65C39.4113 6.10733 38.7206 5.836 37.8079 5.836C35.3166 5.836 33.8366 7.21733 33.3679 9.98L32.0729 17.454C31.9496 18.0953 31.8879 18.7243 31.8879 19.341C31.8879 20.969 32.8623 21.783 34.8109 21.783C37.1543 21.783 38.5603 20.4633 39.0289 17.824H45.6889L45.5039 18.897C44.5173 24.6443 40.6076 27.518 33.7749 27.518Z" fill="#FBFBFF"/>
</svg>
